<mxfile host="app.diagrams.net" modified="2024-04-28T08:20:19.589Z" agent="Mozilla/5.0 (X11; Linux x86_64) AppleWebKit/537.36 (KHTML, like Gecko) Chrome/121.0.0.0 Safari/537.36" version="24.2.7" etag="D639vMZ09GaWqp-Mkla-" type="github">
  <diagram name="Page-1" id="ljR0s2H7mPBOJKf0Iuo4">
    <mxGraphModel>
      <root>
        <mxCell id="0" />
        <mxCell id="1" parent="0" />
      </root>
    </mxGraphModel>
  </diagram>
</mxfile>
